<svg id="Capa_1" enable-background="new 0 0 512 512" height="512" viewBox="0 0 512 512" width="512" xmlns="http://www.w3.org/2000/svg"><g><g><g><path d="m369.579 222.818c-10.384-66.745-63.954-99.132-124.406-111.792.008.004 1.516 3.638-.11-.271-4.36-.922-10.002-2.503-15.764-3.318-28.258-3.876-60.802-7.476-90.422.49-4.748 1.277-9.488 2.766-14.212 4.488.023-.004.047-.007.07-.011-7.358 2.789-13.767 5.424-22.129 10.116-33.621 18.889-57.173 50.392-60.023 94.087-.967 14.832-7.361 21.999-8.805 28.201-1.755 7.534 6.257 15.271 9.455 22.715 1.34 3.118 1.12 6.712-.542 9.67-6.592 11.735-14.865 19.717-24.761 27.336-5.766 4.439-10.165 8.406-10.15 15.317.018 8.062 5.065 13.328 15.897 16.659 20.751 6.382-4.337 22.649-4.337 22.649s-3.476 5.005 2.204 9.534c4.376 3.489 7.188 6.387 8.613 7.977.618.689.521 1.741-.187 2.336-4.088 3.438-5.008 6.953-4.869 9.666.134 2.616 1.911 4.859 4.393 5.697 1.882.636 4.38 1.662 6.551 3.165 2.067 1.431 3.341 4.826 1.907 7.389-2.66 4.755-6.287 10.45-3.814 20.498 3.814 15.493 16.813 21.224 29.853 23.359 9.15 1.498 28.095-1.678 47.373-4.29 34.045-4.614 49.69 23.491 59.722 47.676h-.002c.456 1.731 1.299 3.42 2.432 4.965 3.826 5.218 15.187 5.892 21.888 3.928l112.068-29.811c9.39-2.416 14.603-12.438 11.23-21.536-9.723-26.191-20.173-62.771-7.366-77.559.614-.677.12-.156 1.425-1.468 37.897-34.297 52.359-57.181 56.541-92.381 0 0-4.549-.012 0 0 1.655-17.077 3.168-35.922.277-55.481z" fill="#fed2a4"/><path d="m334.953 353.317c8.157-8.579 17.272-18.954 24.172-31.329 12.382-21.13 14.848-47.61 15.02-73.521-.119-14.095-1.068-28.112-5.594-42.987-7.362-24.661-23.094-47.157-45.334-63.784.002.003.004.005.007.008-22.778-17.323-50.958-28.581-79.695-34.598.008 0 .016.008.016.016-4.354-.924-11.108-2.157-16.873-2.968-30.358-4.168-62.629-4.216-94.381 5.692 25.371-4.857 50.75-4.143 74.921-.827 5.765.811 12.519 2.043 16.873 2.968 0-.008-.008-.016-.016-.016 60.448 12.657 118.447 48.48 128.833 115.228 1.289 8.741 1.784 17.546 1.784 26.133 0 10.638-.754 20.952-1.67 30.398-2.495 20.957-8.331 37.401-20.645 54.513-6.45 7.275-14.263 14.97-23.756 23.562-.489.464-.959.869-2.449 2.514-13.257 15.3-11.384 45.123 5.708 91.178.576 1.532.114 2.805-.211 3.43-.324.608-1.086 1.695-2.643 2.092l-135.5 36.106c3.097 4.224 8.368 7.379 13.817 7.379 1.281 0 2.57-.17 3.843-.543l120.871-31.16c9.389-2.416 14.603-12.438 11.23-21.536-9.722-26.19-20.733-64.186-7.93-78.975.081-.097.17-.186.251-.284 3.652-3.814 3.271-2.394 19.351-18.689z" fill="#ffbd86"/></g><g><path d="m269.827 293.297c-8.253-1.393-16.277.831-22.465 5.509-2.082-.955-4.352-1.607-6.771-1.876-11.133-1.238-21.641 6.347-23.959 17.306-2.607 12.324 5.578 24.218 17.874 26.294 2.459.415 4.89.403 7.221.022.347-.057.692.07.919.339 4.3 5.111 10.363 8.784 17.465 9.982 13.115 2.213 25.663-4.69 31.16-16.1 1.167-2.422-2.652-5.834-2.182-8.618 2.682-15.899-3.363-30.175-19.262-32.858z" fill="#dc4955"/><path d="m293.757 326.94c-.47 2.784-1.316 5.412-2.492 7.83-6.788 1.47-13.969 1.695-21.235.468-7.879-1.33-15.262-4.249-21.792-8.589-7.948 4.714-17.112 7.146-26.382 6.954-4.372-4.826-6.569-11.536-5.401-18.455 2.023-11.988 13.393-20.067 25.381-18.044 1.957.33 3.806.917 5.53 1.702 6.187-4.682 14.208-6.904 22.461-5.512 15.901 2.684 26.612 17.754 23.93 33.646z" fill="#d82f3c"/><path d="m228.351 381.142-14.98.382c-4.192-.707-5.929-1.671-7.494-5.624l-4.46-5.297-22.495-59.025 33.051-9.011 22.474 71.693c1.139 3.843-2.144 7.549-6.096 6.882z" fill="#df646e"/><path d="m230.346 383.425-17.523.078c-4.189-.707-7.706-3.551-9.27-7.51l-2.136-5.391 18.119.022c1.974.333 3.613-1.521 3.05-3.437l-18.675-62.425 10.259-2.796 22.277 74.576c1.135 3.842-2.143 7.551-6.101 6.883z" fill="#dc4955"/><path d="m315.142 257.571c-.65-1.094-.436-2.487.49-3.359 5.653-5.316 9.353-12.075 10.744-20.318 3.216-18.573-6.634-38.034-25.157-42.588-.493-.121-.991-.232-1.493-.333-.953-.191-1.728-.909-2.001-1.842-3.837-13.134-14.863-23.607-29.261-26.037-10.262-1.732-20.249.957-28.012 6.681-1.231.908-2.954.568-3.823-.69-6.447-9.335-16.512-16.157-28.582-18.194-15.545-2.623-30.552 3.341-40.176 14.441-.538.62-1.42.837-2.153.469-2.877-1.444-6.012-2.493-9.352-3.057-17.394-2.935-33.897 8.253-37.807 25.219-.163.707-.714 1.246-1.425 1.389-15.419 3.1-28.074 15.387-30.847 31.821-1.425 8.444-.021 16.708 3.513 23.836.296.597.245 1.296-.132 1.845-3.128 4.56-5.206 9.961-5.807 15.925-1.701 16.901 9.595 32.723 26.134 36.595 9.198 2.153 18.278.4 25.631-4.1 1.29-.79 2.951-3.424 4.126-4.376 1.016-.823 2.54-.307 2.861.961 2.611 10.32 10.995 18.735 22.167 20.621 3.181.537 6.326.506 9.333-.014.923-.16 1.862.178 2.471.89 3.199 3.741 7.851 5.996 13.085 6.879 6.559 1.107 12.455-.614 17.175-4.586.892-.75 2.144-.87 3.146-.276 3.155 1.872 6.851 3.842 10.686 4.489 10.96 1.85 21.331-1.128 28.108-8.96 1.924 1.887 4.024 3.608 6.287 5.123 5.458 3.653 11.168 3.385 18.205 4.411 21.575 3.145 42.345-10.627 47.073-31.912 2.528-11.39.263-21.742-5.207-30.953z" fill="#df646e"/><g fill="#dc4955"><path d="m322.009 289.771c-5.152 21.805-26.395 36.303-48.586 33.217-6.81-.948-13.028-3.397-18.352-6.966 1.817.508 3.692.888 5.613 1.158 22.19 3.086 43.433-11.412 48.586-33.217 2.759-11.635.637-23.125-4.932-32.507-.649-1.088-.452-2.473.481-3.34 5.654-5.32 9.694-12.459 11.085-20.703 2.429-14.014-3.875-28.149-15.075-36.195 18.743 4.38 31.055 23.296 27.815 42.003-1.391 8.244-5.431 15.383-11.085 20.703-.933.867-1.13 2.252-.481 3.34 5.568 9.382 7.69 20.871 4.931 32.507z"/><path d="m142.187 293.616c2.613 10.325 11.075 18.652 22.253 20.538 3.175.536 6.318.499 9.332-.017.923-.155 1.863.177 2.465.892 3.201 3.742 7.678 6.427 12.916 7.311 6.554 1.106 12.921-.847 17.644-4.824.885-.747 2.14-.865 3.138-.275 3.159 1.878 6.702 3.216 10.535 3.863 9.511 1.886 19.445-1.845 25.884-7.687 1.103-.994 2.112-2.066 3.025-3.185 3.127-3.038 5.873-6.467 8.123-10.219l-3.682-3.022c-1.753 3.238-5.714 6.267-8.948 10.652-7.286 6.77-27.691 1.189-35.179-3.135-1.951-1.126-4.375-1.094-6.299.079-4.64 2.828-10.695 4.798-15.884 3.922-4.105-.693-8.976-2.712-11.931-5.715-1.536-1.561-3.787-2.16-5.921-1.666-2.06.477-3.614.5-7.103-.473-7.786-2.171-16.534-7.77-18.251-18.331z"/></g></g><g fill="#faf8f8"><path d="m283.383 110.408c0-7.32-1.023-13.578-7.089-16.751-2.629-1.375-5.621-2.153-8.794-2.153-10.493 0-19 8.507-19 19 0 .965.072 1.913.211 2.84 1.371 9.146 9.366 13.745 18.894 13.745 10.493 0 15.778-6.188 15.778-16.681z"/><circle cx="322.58" cy="200.424" r="25.92"/><path d="m488.319 139.259c0-8.362-1.096-14.981-7.581-19.277-3.795-2.514-8.345-3.978-13.238-3.978-13.255 0-24 10.745-24 24 0 2.076.264 4.091.759 6.013 2.669 10.345 14.115 15.455 25.294 15.455 13.255 0 18.766-8.958 18.766-22.213z"/><path d="m354.362 125.046c0-7.631-2.032-14.331-8.217-17.861-2.991-1.707-6.454-2.682-10.145-2.682-11.322 0-20.5 9.178-20.5 20.5 0 1.302.121 2.576.354 3.811 1.786 9.501 11.627 13.593 21.646 13.593 11.322.001 16.862-6.039 16.862-17.361z"/><path d="m413.511 173.472c0-7.631-1.18-13.757-7.366-17.286-2.991-1.707-6.454-2.682-10.145-2.682-11.322 0-20.5 9.178-20.5 20.5 0 1.302.121 2.576.354 3.811 1.786 9.501 12.829 12.689 22.849 12.689 11.321 0 14.808-5.71 14.808-17.032z"/><path d="m335.723 52.28c0-8.457-2.508-15.19-9.025-19.592-3.91-2.642-8.624-4.184-13.698-4.184-13.531 0-24.5 10.969-24.5 24.5 0 2.193.288 4.318.828 6.34 2.794 10.458 13.355 15.915 24.693 15.915 13.531 0 21.702-9.448 21.702-22.979z"/><path d="m503.255 30.238c0-7.767-2.69-14.848-8.675-18.891-3.591-2.426-7.92-3.843-12.58-3.843-12.426 0-22.5 10.074-22.5 22.5 0 1.747.199 3.448.576 5.081 2.303 9.979 12.841 15.579 23.52 15.579 12.426-.001 19.659-8 19.659-20.426z"/><path d="m433.426 241.934c0-6.514-2.077-12.488-7.879-14.56-1.577-.563-3.276-.87-5.046-.87-8.284 0-15 6.716-15 15s8.237 13.585 16.521 13.585 11.404-4.871 11.404-13.155z"/><path d="m238.021 56.195c0-6.53-2.694-11.777-8.519-13.837-1.564-.553-3.248-.854-5.002-.854-8.284 0-15 6.716-15 15 0 .047 0 .093.001.14.075 8.22 7.858 12.998 16.095 12.998 8.284 0 12.425-5.163 12.425-13.447z"/><path d="m421.538 72.223c-1.079-1.079-1.517-2.958-2.724-3.806-10.084-7.089-24.103-6.125-33.118 2.89-6.888 6.888-9.076 16.696-6.563 25.439 1.169 4.07 5.554 7.242 8.76 10.448 10.094 10.094 23.268 8.712 33.362-1.381 10.094-10.095 10.377-23.496.283-33.59z"/><path d="m257.894 175.504c0-6.627-2.553-12.783-8.404-15-1.706-.646-3.557-1-5.49-1-8.56 0-15.5 6.94-15.5 15.5 0 .167.003.334.008.5.264 8.329 8.099 13.287 16.492 13.287 8.56 0 12.894-4.727 12.894-13.287z"/></g><path d="m286.5 110.504c0 10.49-8.51 19-19 19-9.52 0-17.42-7.01-18.79-16.16 2.63 1.38 5.62 2.16 8.79 2.16 10.49 0 19-8.51 19-19 0-.97-.07-1.91-.21-2.84 6.07 3.17 10.21 9.52 10.21 16.84z" fill="#f0e9e6"/><path d="m348.5 200.424c0 14.31-11.61 25.92-25.92 25.92-12.064 0-22.216-8.251-25.089-19.429 4.104 2.722 9.007 4.309 14.288 4.309 14.31 0 25.92-11.61 25.92-25.92 0-2.246-.281-4.417-.832-6.491 7.011 4.622 11.633 12.582 11.633 21.611z" fill="#f0e9e6"/><path d="m491.5 140.004c0 13.25-10.75 24-24 24-11.17 0-20.57-7.64-23.23-17.99 3.8 2.52 8.34 3.99 13.23 3.99 13.25 0 24-10.75 24-24 0-2.08-.26-4.09-.77-6.01 6.49 4.28 10.77 11.65 10.77 20.01z" fill="#f0e9e6"/><path d="m356.5 125.004c0 11.32-9.18 20.5-20.5 20.5-10.02 0-18.36-7.19-20.14-16.69 2.99 1.71 6.45 2.69 10.14 2.69 11.32 0 20.5-9.18 20.5-20.5 0-1.3-.12-2.58-.36-3.81 6.19 3.52 10.36 10.18 10.36 17.81z" fill="#f0e9e6"/><path d="m416.5 174.004c0 11.32-9.18 20.5-20.5 20.5-10.02 0-18.36-7.19-20.14-16.69 2.99 1.71 6.45 2.69 10.14 2.69 11.32 0 20.5-9.18 20.5-20.5 0-1.3-.12-2.58-.36-3.81 6.19 3.52 10.36 10.18 10.36 17.81z" fill="#f0e9e6"/><path d="m337.5 53.004c0 13.53-10.97 24.5-24.5 24.5-11.34 0-20.87-7.7-23.67-18.16 3.91 2.63 8.61 4.16 13.67 4.16 13.53 0 24.5-10.97 24.5-24.5 0-2.19-.29-4.32-.83-6.34 6.53 4.41 10.83 11.87 10.83 20.34z" fill="#f0e9e6"/><path d="m504.5 30.004c0 12.43-10.07 22.5-22.5 22.5-10.68 0-19.62-7.44-21.92-17.42 3.45 2.17 7.54 3.42 11.92 3.42 12.43 0 22.5-10.07 22.5-22.5 0-1.75-.2-3.45-.58-5.08 6.36 3.97 10.58 11.03 10.58 19.08z" fill="#f0e9e6"/><path d="m435.5 241.504c0 8.28-6.72 15-15 15-8.23 0-14.92-6.64-15-14.86 1.57.56 3.25.86 5 .86 8.28 0 15-6.72 15-15v-.14c5.82 2.05 10 7.61 10 14.14z" fill="#f0e9e6"/><path d="m239.5 56.504c0 8.28-6.72 15-15 15-8.23 0-14.92-6.64-15-14.86 1.57.56 3.25.86 5 .86 8.28 0 15-6.72 15-15v-.14c5.82 2.05 10 7.61 10 14.14z" fill="#f0e9e6"/><path d="m422.25 107.864c-10.09 10.09-26.46 10.09-36.55 0-3.21-3.21-5.4-7.05-6.56-11.12 10.08 7.09 24.1 6.13 33.11-2.88 6.88-6.89 9.07-16.7 6.56-25.44 1.21.84 2.36 1.8 3.44 2.88 10.09 10.1 10.09 26.46 0 36.56z" fill="#f0e9e6"/><path d="m259.5 175.004c0 8.56-6.94 15.5-15.5 15.5-8.39 0-15.23-6.67-15.49-15 1.71.65 3.56 1 5.49 1 8.56 0 15.5-6.94 15.5-15.5 0-.17 0-.33-.01-.5 5.85 2.22 10.01 7.87 10.01 14.5z" fill="#f0e9e6"/></g><g><path d="m374.562 246.235c-4.132-.082-7.56 3.22-7.636 7.361-.869 47.387-8.922 70.169-54.874 111.679-8.478 7.659-11.371 20.658-8.847 39.742.499 3.773 3.721 6.518 7.426 6.518.328 0 .659-.021.993-.066 4.106-.543 6.995-4.313 6.452-8.418-1.752-13.25-.321-22.712 4.032-26.644 24.655-22.271 38.834-39.437 47.411-57.397 8.281-17.341 11.875-36.213 12.405-65.138.076-4.143-3.22-7.562-7.362-7.637z"/><path d="m326.142 435.908c-1.292-3.936-5.529-6.079-9.464-4.788-3.936 1.292-6.079 5.529-4.788 9.464 1.398 4.261 2.969 8.741 4.67 13.317.887 2.386.728 4.94-.449 7.191-1.175 2.248-3.179 3.835-5.642 4.469l-121.098 31.159c-4.288 1.106-8.771-1.145-10.432-5.227-7.349-18.069-24.562-60.391-68.665-54.417-12.293 1.697-38.216 5.685-45.248 4.321-18.174-2.969-22.308-11.554-23.837-17.753-1.457-5.739.254-10.606 3.082-15.036 3.193-5.696 1.313-13.424-4.189-17.227-2.569-1.776-5.387-3.017-7.67-3.838.279-.882 1.074-2.056 3.011-3.45 1.647-1.186 2.745-2.989 3.04-4.998s-.237-4.051-1.474-5.661c-.361-.47-3.668-4.671-10.587-10.242 5.46-4.134 13.877-12.071 12.636-20.991-.579-4.161-3.375-9.767-13.409-12.847-10.614-3.258-10.624-7.323-10.628-9.507-.006-2.971 1.549-4.982 7.239-9.354 8.811-6.771 18.882-15.583 26.773-29.604 2.811-4.993 3.145-11.092.896-16.316-1.273-2.958-3.011-5.705-4.691-8.362-2.156-3.409-4.839-7.651-4.366-9.683.297-1.275 1.166-3.106 2.17-5.226 2.57-5.422 6.09-12.849 6.832-24.191 1.487-22.752 8.954-42.759 22.195-59.463 2.573-3.246 2.027-7.963-1.219-10.536s-7.963-2.027-10.536 1.219c-15.17 19.139-23.719 41.951-25.408 67.803-.555 8.484-3.138 13.935-5.418 18.745-1.317 2.778-2.561 5.403-3.224 8.243-1.901 8.149 2.644 15.335 6.296 21.109 1.433 2.265 2.786 4.404 3.591 6.276.411.954.34 2.085-.19 3.027-5.293 9.406-11.911 16.668-22.841 25.068-5.227 4.014-13.124 10.082-13.1 21.279.026 11.486 7.167 19.498 21.227 23.813 1.235.379 2.047.74 2.562 1.017-1.25 2.123-5.129 5.785-8.782 8.167-.818.529-1.525 1.213-2.082 2.013-3.014 4.333-4.517 13.151 3.695 19.687 1.544 1.229 2.869 2.373 3.981 3.389-5.054 7.369-3.477 15.379-.439 19.822 2.188 2.972 4.829 2.736 10.09 5.144-2.847 5.104-6.506 12.623-3.626 24.302 3.937 15.963 16.042 25.708 35.982 28.965 9.877 1.753 32.329-1.887 49.677-4.26 28.634-3.874 42.279 19.437 52.759 45.205 3.711 9.125 12.64 14.852 22.152 14.852 1.959 0 3.944-.243 5.912-.749l121.099-31.159c6.536-1.682 12.075-6.073 15.198-12.048 3.124-5.978 3.567-13.036 1.215-19.365-1.633-4.395-3.14-8.691-4.478-12.768z"/><path d="m91.731 136.737c1.471 0 2.958-.432 4.26-1.333 24.608-17.025 57.77-26.401 93.376-26.401 4.505 0 9.093.123 13.639.364 4.143.23 7.667-2.955 7.887-7.091s-2.955-7.667-7.091-7.887c-4.809-.256-9.666-.385-14.435-.385-38.626 0-74.819 10.322-101.911 29.065-3.406 2.357-4.257 7.029-1.901 10.435 1.457 2.104 3.797 3.234 6.176 3.233z"/><path d="m260.808 359.329c1.919.304 3.848.453 5.771.453 8.203 0 16.29-2.72 22.838-7.793 8.198-6.353 13.258-15.557 14.248-25.917.001-.013.001-.026.002-.039 2.707-1.325 5.323-2.885 7.812-4.694 11.248-8.172 18.64-20.235 20.815-33.967.648-4.091-2.143-7.933-6.234-8.581-4.088-.647-7.933 2.144-8.581 6.234-1.548 9.775-6.81 18.362-14.816 24.179-8.007 5.817-17.801 8.169-27.574 6.62-5.422-.859-10.494-2.885-14.957-5.91 1.045-1.903 1.947-3.913 2.677-6.025 1.353-3.915-.725-8.186-4.64-9.538-3.913-1.352-8.186.725-9.538 4.64-3.753 10.867-14.731 17.445-26.104 15.644-3.421-.542-6.608-1.791-9.474-3.711-3.012-2.02-7.035-1.594-9.56 1.007-3.325 3.427-8.114 5.03-12.816 4.285-3.752-.594-7.084-2.594-9.383-5.629-1.801-2.38-4.842-3.466-7.746-2.763-2.652.643-5.377.75-8.095.32-10.604-1.68-18.239-11.37-17.382-22.06.296-3.699-2.156-7.059-5.77-7.903-4.882-1.141-8.237-5.61-7.978-10.626.143-2.767 1.354-5.312 3.412-7.167 1.445-1.23 5.069-3.202 9.046-2.456 3.961.807 7.85-1.668 8.793-5.599 1.954-8.143 9.465-13.732 17.827-13.307 3.095.161 6.093 1.144 8.67 2.843 2.055 1.355 4.644 1.616 6.926.698 4.295-1.727 8.994-2.254 13.588-1.528 3.966.628 7.7 2.197 10.929 4.506-1.522 2.767-2.569 5.805-3.078 9.017-.648 4.091 2.143 7.933 6.234 8.581.397.063.792.093 1.183.093 3.625 0 6.813-2.634 7.398-6.328.528-3.333 2.323-6.262 5.053-8.246 2.73-1.983 6.069-2.785 9.404-2.257 4.295.68 7.894 3.473 9.626 7.471 1.647 3.8 6.062 5.548 9.864 3.899 3.801-1.647 5.546-6.063 3.899-9.864-3.785-8.733-11.651-14.835-21.043-16.322-6.228-.986-12.462.156-17.871 3.212-5.523-4.47-12.167-7.456-19.253-8.578-6.026-.955-12.166-.542-17.969 1.184-3.97-1.979-8.326-3.13-12.787-3.361-13.417-.681-25.612 6.923-31.079 18.719-5.709.346-11.096 2.596-15.406 6.482-5.033 4.538-7.997 10.765-8.347 17.533-.493 9.557 4.381 18.303 12.208 23.026-4.454 3.003-9.679 4.624-15.124 4.624-.007 0-.013.001-.021 0-4.14 0-7.498 3.355-7.5 7.496-.002 4.142 3.354 7.502 7.496 7.504h.025c7.309 0 14.356-1.879 20.593-5.388 5.077 9.775 14.563 17.091 26.088 18.917 3.137.497 6.283.576 9.396.241 2.23 2.135 4.77 3.888 7.528 5.224l16.237 50.83c2.246 7.029 8.711 11.751 16.09 11.751h18.125c4.295 0 8.234-1.972 10.808-5.411s3.355-7.774 2.145-11.895l-7.174-24.415c3.088.338 5.763 1.314 7.735 2.829 4.886 3.753 10.699 6.248 16.811 7.216zm-48.449 16.675c-.826 0-1.55-.529-1.801-1.315l-13.911-43.545c4.663-.588 9.143-2.26 13.045-4.923 1.523.722 3.095 1.329 4.701 1.843l14.087 47.941h-16.121zm24.644-41.748c-2.088-.331-4.066-1.099-5.814-2.24l-.68-2.314c7.362-.808 14.26-3.716 19.928-8.253 6.575 4.754 14.167 7.902 22.306 9.191 2.757.437 5.515.652 8.253.652 2.086 0 4.161-.128 6.216-.376-1.448 3.603-3.821 6.768-6.981 9.216-4.897 3.794-10.962 5.352-17.075 4.382-3.647-.578-7.113-2.063-10.02-4.297-4.18-3.211-9.49-5.237-15.363-5.859-.258-.028-.516-.062-.77-.102z"/><path d="m86.925 293.082c1.357 0 2.73-.368 3.966-1.14 3.513-2.194 4.582-6.821 2.387-10.334-3.473-5.56-4.82-12.192-3.792-18.677.67-4.23 2.272-8.133 4.762-11.601 1.678-2.337 1.871-5.429.497-7.957-3.419-6.289-4.634-13.354-3.513-20.43 2.146-13.551 12.662-24.287 26.166-26.712 3.078-.553 5.489-2.958 6.052-6.033 2.538-13.886 15.946-23.384 29.89-21.178 2.949.467 5.773 1.423 8.393 2.843 3.201 1.735 7.186.919 9.448-1.932 8.254-10.4 21.515-15.573 34.611-13.5 4.092.65 7.934-2.144 8.581-6.234.648-4.091-2.144-7.933-6.234-8.581-16.473-2.608-33.127 2.925-44.772 14.575-2.482-.905-5.049-1.57-7.679-1.986-20.239-3.206-39.762 9.279-45.779 28.397-17.419 5.063-30.608 19.794-33.491 37.996-1.403 8.862-.306 17.713 3.171 25.853-2.471 4.364-4.12 9.101-4.917 14.134-1.593 10.056.498 20.344 5.886 28.971 1.422 2.276 3.866 3.526 6.367 3.526z"/><path d="m267.5 137.004c14.612 0 26.5-11.888 26.5-26.5s-11.888-26.5-26.5-26.5-26.5 11.888-26.5 26.5 11.888 26.5 26.5 26.5zm0-38c6.341 0 11.5 5.159 11.5 11.5s-5.159 11.5-11.5 11.5-11.5-5.159-11.5-11.5 5.159-11.5 11.5-11.5z"/><path d="m356 198.504c0-17.369-14.131-31.5-31.5-31.5s-31.5 14.131-31.5 31.5 14.131 31.5 31.5 31.5 31.5-14.131 31.5-31.5zm-31.5 16.5c-9.098 0-16.5-7.402-16.5-16.5s7.402-16.5 16.5-16.5 16.5 7.402 16.5 16.5-7.402 16.5-16.5 16.5z"/><path d="m467.5 108.504c-17.369 0-31.5 14.131-31.5 31.5s14.131 31.5 31.5 31.5 31.5-14.131 31.5-31.5-14.131-31.5-31.5-31.5zm0 48c-9.098 0-16.5-7.402-16.5-16.5s7.402-16.5 16.5-16.5 16.5 7.402 16.5 16.5-7.402 16.5-16.5 16.5z"/><path d="m308 125.004c0 15.439 12.561 28 28 28s28-12.561 28-28-12.561-28-28-28-28 12.56-28 28zm41 0c0 7.168-5.832 13-13 13s-13-5.832-13-13 5.832-13 13-13 13 5.831 13 13z"/><path d="m424 174.004c0-15.439-12.561-28-28-28s-28 12.561-28 28 12.561 28 28 28 28-12.561 28-28zm-28 13c-7.168 0-13-5.832-13-13s5.832-13 13-13 13 5.832 13 13-5.831 13-13 13z"/><path d="m313 85.004c17.645 0 32-14.355 32-32s-14.355-32-32-32-32 14.355-32 32 14.355 32 32 32zm0-49c9.374 0 17 7.626 17 17s-7.626 17-17 17-17-7.626-17-17 7.626-17 17-17z"/><path d="m482 .004c-16.542 0-30 13.458-30 30s13.458 30 30 30 30-13.458 30-30-13.458-30-30-30zm0 45c-8.271 0-15-6.729-15-15s6.729-15 15-15 15 6.729 15 15-6.729 15-15 15z"/><path d="m420.5 219.004c-12.407 0-22.5 10.093-22.5 22.5s10.093 22.5 22.5 22.5 22.5-10.093 22.5-22.5-10.093-22.5-22.5-22.5zm0 30c-4.136 0-7.5-3.364-7.5-7.5s3.364-7.5 7.5-7.5 7.5 3.364 7.5 7.5-3.364 7.5-7.5 7.5z"/><path d="m224.5 79.004c12.407 0 22.5-10.093 22.5-22.5s-10.093-22.5-22.5-22.5-22.5 10.093-22.5 22.5 10.093 22.5 22.5 22.5zm0-30c4.136 0 7.5 3.364 7.5 7.5s-3.364 7.5-7.5 7.5-7.5-3.364-7.5-7.5 3.364-7.5 7.5-7.5z"/><path d="m403.973 122.931c8.908 0 17.282-3.469 23.58-9.768 13.002-13.002 13.002-34.158 0-47.16-13.001-13.001-34.157-13.002-47.16 0-13.002 13.002-13.002 34.158 0 47.16 6.299 6.299 14.673 9.768 23.58 9.768zm-12.973-46.321c3.577-3.577 8.275-5.365 12.973-5.365 4.699 0 9.397 1.789 12.974 5.365 7.153 7.154 7.153 18.793 0 25.947-3.465 3.465-8.073 5.374-12.974 5.374-4.9 0-9.508-1.909-12.973-5.374-7.153-7.154-7.153-18.793 0-25.947z"/><path d="m267 175.004c0-12.682-10.318-23-23-23s-23 10.318-23 23 10.318 23 23 23 23-10.318 23-23zm-31 0c0-4.411 3.589-8 8-8s8 3.589 8 8-3.589 8-8 8-8-3.589-8-8z"/></g></g></svg>